<svg width="1600" height="760" viewBox="0 0 1600 760" fill="none" xmlns="http://www.w3.org/2000/svg">
  <defs>
    <linearGradient id="bg2" x1="88" y1="48" x2="1500" y2="760" gradientUnits="userSpaceOnUse">
      <stop stop-color="#050915"/>
      <stop offset="0.55" stop-color="#0A1731"/>
      <stop offset="1" stop-color="#071520"/>
    </linearGradient>
    <linearGradient id="neon" x1="0" y1="0" x2="1" y2="1">
      <stop stop-color="#00DEFF"/>
      <stop offset="1" stop-color="#54F0C2"/>
    </linearGradient>
    <linearGradient id="panel2" x1="0" y1="0" x2="1" y2="1">
      <stop stop-color="#0D1933" stop-opacity="0.95"/>
      <stop offset="1" stop-color="#07101C" stop-opacity="0.80"/>
    </linearGradient>
    <radialGradient id="glow2" cx="0" cy="0" r="1" gradientUnits="userSpaceOnUse" gradientTransform="translate(838 382) rotate(90) scale(280 420)">
      <stop stop-color="#00DEFF" stop-opacity="0.30"/>
      <stop offset="1" stop-color="#00DEFF" stop-opacity="0"/>
    </radialGradient>
    <style>
      @import url('https://fonts.googleapis.com/css2?family=Cinzel:wght@700;800;900&amp;family=Inter:wght@400;500;600;700;800&amp;display=swap');
      .title { font-family: 'Cinzel', Georgia, serif; font-weight: 800; letter-spacing: 5px; }
      .label { font-family: 'Inter', 'Segoe UI', sans-serif; font-weight: 700; letter-spacing: 2.5px; }
      .body { font-family: 'Inter', 'Segoe UI', sans-serif; font-weight: 500; }
      .mono { font-family: 'Consolas', 'Courier New', monospace; font-weight: 600; }
    </style>
  </defs>

  <rect width="1600" height="760" rx="34" fill="url(#bg2)"/>
  <rect x="20" y="20" width="1560" height="720" rx="24" stroke="#82ECFF" stroke-opacity="0.18" stroke-width="1.4"/>
  <circle cx="838" cy="382" r="280" fill="url(#glow2)"/>

  <g opacity="0.14">
    <path d="M0 188H1600" stroke="#B5F8FF"/>
    <path d="M0 294H1600" stroke="#B5F8FF"/>
    <path d="M0 400H1600" stroke="#B5F8FF"/>
    <path d="M0 506H1600" stroke="#B5F8FF"/>
    <path d="M0 612H1600" stroke="#B5F8FF"/>
    <path d="M264 0V760" stroke="#B5F8FF"/>
    <path d="M528 0V760" stroke="#B5F8FF"/>
    <path d="M792 0V760" stroke="#B5F8FF"/>
    <path d="M1056 0V760" stroke="#B5F8FF"/>
    <path d="M1320 0V760" stroke="#B5F8FF"/>
  </g>

  <text x="800" y="112" text-anchor="middle" class="title" font-size="48" fill="#F6FCFF">AI OPERATING SYSTEM // COMMAND CENTER</text>
  <text x="800" y="154" text-anchor="middle" class="label" font-size="19" fill="#7DEBFF">INTELLIGENCE LAYERED WITH PRODUCT THINKING, SYSTEM DESIGN AND EXECUTION</text>

  <g>
    <rect x="84" y="212" width="420" height="434" rx="28" fill="url(#panel2)" stroke="#63EFFF" stroke-opacity="0.42"/>
    <text x="124" y="266" class="label" font-size="18" fill="#D6FAFF">CAPABILITY GRID</text>
    <text x="124" y="322" class="body" font-size="25" fill="#ECFCFF">[OK] AI Agents</text>
    <text x="124" y="370" class="body" font-size="25" fill="#ECFCFF">[OK] Machine Learning</text>
    <text x="124" y="418" class="body" font-size="25" fill="#ECFCFF">[OK] Deep Learning</text>
    <text x="124" y="466" class="body" font-size="25" fill="#ECFCFF">[OK] RAG Systems</text>
    <text x="124" y="514" class="body" font-size="25" fill="#ECFCFF">[OK] Full-Stack AI Products</text>
    <text x="124" y="562" class="body" font-size="25" fill="#ECFCFF">[OK] Automation Pipelines</text>
    <text x="124" y="614" class="mono" font-size="19" fill="#91F4FF">Signal: Systems that move beyond demos and into deployment.</text>
  </g>

  <g>
    <rect x="552" y="212" width="494" height="434" rx="28" fill="url(#panel2)" stroke="#63EFFF" stroke-opacity="0.42"/>
    <text x="592" y="266" class="label" font-size="18" fill="#D6FAFF">ARCHITECTURE STACK</text>

    <rect x="592" y="306" width="414" height="62" rx="18" fill="#081726" stroke="#4AF0C6" stroke-opacity="0.55"/>
    <text x="626" y="346" class="body" font-size="24" fill="#F3FDFF">Brain Layer -> LLMs | RAG | Agents | Multi-Agent Logic</text>

    <rect x="592" y="390" width="414" height="62" rx="18" fill="#081726" stroke="#63EFFF" stroke-opacity="0.55"/>
    <text x="626" y="430" class="body" font-size="24" fill="#F3FDFF">ML Layer -> TensorFlow | PyTorch | Scikit-Learn</text>

    <rect x="592" y="474" width="414" height="62" rx="18" fill="#081726" stroke="#4AF0C6" stroke-opacity="0.55"/>
    <text x="626" y="514" class="body" font-size="24" fill="#F3FDFF">App Layer -> FastAPI | React | PostgreSQL</text>

    <rect x="592" y="558" width="414" height="62" rx="18" fill="#081726" stroke="#63EFFF" stroke-opacity="0.55"/>
    <text x="626" y="598" class="body" font-size="24" fill="#F3FDFF">Infra Layer -> Docker | Cloud | Automation</text>
  </g>

  <g>
    <rect x="1094" y="212" width="422" height="434" rx="28" fill="url(#panel2)" stroke="#63EFFF" stroke-opacity="0.42"/>
    <text x="1134" y="266" class="label" font-size="18" fill="#D6FAFF">EXECUTIVE SIGNAL</text>
    <text x="1134" y="328" class="mono" font-size="22" fill="#ECFCFF">STATUS   : ONLINE</text>
    <text x="1134" y="370" class="mono" font-size="22" fill="#ECFCFF">POSITION : AI ENGINEER + PRODUCT BUILDER</text>
    <text x="1134" y="412" class="mono" font-size="22" fill="#ECFCFF">EDGE     : AI + BUSINESS + AUTOMATION</text>
    <text x="1134" y="454" class="mono" font-size="22" fill="#ECFCFF">OUTPUT   : SHIPPED INTELLIGENT SYSTEMS</text>
    <text x="1134" y="516" class="body" font-size="24" fill="#F2FCFF">Why it matters</text>
    <text x="1134" y="558" class="body" font-size="21" fill="#D4F9FF">Not just model experimentation.</text>
    <text x="1134" y="592" class="body" font-size="21" fill="#D4F9FF">Not just clean code.</text>
    <text x="1134" y="626" class="body" font-size="21" fill="#D4F9FF">This profile signals product-minded AI execution.</text>
  </g>

  <path d="M126 170C236 136 392 132 510 170" stroke="url(#neon)" stroke-width="2.2" opacity="0.6"/>
  <path d="M1082 170C1192 136 1348 132 1466 170" stroke="url(#neon)" stroke-width="2.2" opacity="0.6"/>
</svg>
